<mxfile host="app.diagrams.net" modified="2020-03-26T18:48:41.885Z" agent="Mozilla/5.0 (Macintosh; Intel Mac OS X 10_15_3) AppleWebKit/537.36 (KHTML, like Gecko) Chrome/80.0.3987.149 Safari/537.36" etag="p5wrFTzOL7SmyM6kiKgC" version="12.8.8" type="github">
  <diagram id="7X1BECR9ZzV7m8dXaOoN" name="Page-1">
    <mxGraphModel dx="944" dy="555" grid="1" gridSize="10" guides="1" tooltips="1" connect="1" arrows="1" fold="1" page="1" pageScale="1" pageWidth="827" pageHeight="1169" math="0" shadow="0">
      <root>
        <mxCell id="0" />
        <mxCell id="1" parent="0" />
        <mxCell id="vg6nrwap1aa7qGH-DQrM-14" value="" style="shape=partialRectangle;whiteSpace=wrap;html=1;left=0;right=0;fillColor=#fff2cc;strokeColor=#d6b656;gradientColor=#FFE599;" vertex="1" parent="1">
          <mxGeometry x="460" y="90" width="310" height="178" as="geometry" />
        </mxCell>
        <mxCell id="vg6nrwap1aa7qGH-DQrM-1" value="" style="shape=partialRectangle;whiteSpace=wrap;html=1;left=0;right=0;fillColor=#d5e8d4;strokeColor=#82b366;gradientColor=#CCFF99;" vertex="1" parent="1">
          <mxGeometry x="140" y="270" width="630" height="210" as="geometry" />
        </mxCell>
        <mxCell id="9ZFUQ1CrxA7jaHmztUz1-2" value="" style="endArrow=none;html=1;fillColor=#d5e8d4;strokeColor=#82b366;" parent="1" source="9ZFUQ1CrxA7jaHmztUz1-41" edge="1">
          <mxGeometry width="50" height="50" relative="1" as="geometry">
            <mxPoint x="130" y="312" as="sourcePoint" />
            <mxPoint x="740" y="312" as="targetPoint" />
          </mxGeometry>
        </mxCell>
        <mxCell id="9ZFUQ1CrxA7jaHmztUz1-3" value="" style="endArrow=none;html=1;strokeColor=#007FFF;" parent="1" source="9ZFUQ1CrxA7jaHmztUz1-34" edge="1">
          <mxGeometry width="50" height="50" relative="1" as="geometry">
            <mxPoint x="130" y="352" as="sourcePoint" />
            <mxPoint x="740" y="352" as="targetPoint" />
          </mxGeometry>
        </mxCell>
        <mxCell id="9ZFUQ1CrxA7jaHmztUz1-6" value="" style="rounded=0;whiteSpace=wrap;html=1;fillColor=#f5f5f5;strokeColor=#666666;fontColor=#333333;gradientColor=#00994D;" parent="1" vertex="1">
          <mxGeometry x="20" y="293" width="100" height="30" as="geometry" />
        </mxCell>
        <mxCell id="9ZFUQ1CrxA7jaHmztUz1-7" value="" style="rounded=0;whiteSpace=wrap;html=1;gradientColor=#0066CC;" parent="1" vertex="1">
          <mxGeometry x="20" y="332" width="100" height="30" as="geometry" />
        </mxCell>
        <mxCell id="9ZFUQ1CrxA7jaHmztUz1-8" value="" style="rounded=0;whiteSpace=wrap;html=1;gradientColor=#000066;" parent="1" vertex="1">
          <mxGeometry x="20" y="372" width="100" height="30" as="geometry" />
        </mxCell>
        <mxCell id="9ZFUQ1CrxA7jaHmztUz1-9" value="release" style="text;html=1;strokeColor=none;fillColor=none;align=center;verticalAlign=middle;whiteSpace=wrap;rounded=0;" parent="1" vertex="1">
          <mxGeometry x="50" y="297" width="40" height="20" as="geometry" />
        </mxCell>
        <mxCell id="9ZFUQ1CrxA7jaHmztUz1-10" value="develop" style="text;html=1;strokeColor=none;fillColor=none;align=center;verticalAlign=middle;whiteSpace=wrap;rounded=0;" parent="1" vertex="1">
          <mxGeometry x="50" y="337" width="40" height="20" as="geometry" />
        </mxCell>
        <mxCell id="9ZFUQ1CrxA7jaHmztUz1-11" value="feature/x" style="text;html=1;strokeColor=none;fillColor=none;align=center;verticalAlign=middle;whiteSpace=wrap;rounded=0;" parent="1" vertex="1">
          <mxGeometry x="50" y="377" width="40" height="20" as="geometry" />
        </mxCell>
        <mxCell id="9ZFUQ1CrxA7jaHmztUz1-12" value="" style="endArrow=none;html=1;strokeColor=#000066;" parent="1" edge="1">
          <mxGeometry width="50" height="50" relative="1" as="geometry">
            <mxPoint x="130" y="430" as="sourcePoint" />
            <mxPoint x="741" y="430" as="targetPoint" />
            <Array as="points">
              <mxPoint x="340" y="430" />
            </Array>
          </mxGeometry>
        </mxCell>
        <mxCell id="9ZFUQ1CrxA7jaHmztUz1-13" value="" style="rounded=0;whiteSpace=wrap;html=1;gradientColor=#003366;" parent="1" vertex="1">
          <mxGeometry x="21" y="413" width="100" height="30" as="geometry" />
        </mxCell>
        <mxCell id="9ZFUQ1CrxA7jaHmztUz1-14" value="feature/y" style="text;html=1;strokeColor=none;fillColor=none;align=center;verticalAlign=middle;whiteSpace=wrap;rounded=0;" parent="1" vertex="1">
          <mxGeometry x="51" y="418" width="40" height="20" as="geometry" />
        </mxCell>
        <mxCell id="9ZFUQ1CrxA7jaHmztUz1-16" value="" style="ellipse;whiteSpace=wrap;html=1;aspect=fixed;gradientColor=#3399FF;" parent="1" vertex="1">
          <mxGeometry x="150" y="344.5" width="17.5" height="17.5" as="geometry" />
        </mxCell>
        <mxCell id="9ZFUQ1CrxA7jaHmztUz1-17" value="" style="endArrow=none;html=1;strokeColor=#007FFF;" parent="1" target="9ZFUQ1CrxA7jaHmztUz1-16" edge="1">
          <mxGeometry width="50" height="50" relative="1" as="geometry">
            <mxPoint x="130" y="352" as="sourcePoint" />
            <mxPoint x="740" y="352" as="targetPoint" />
          </mxGeometry>
        </mxCell>
        <mxCell id="9ZFUQ1CrxA7jaHmztUz1-18" value="" style="ellipse;whiteSpace=wrap;html=1;aspect=fixed;gradientColor=#0000CC;" parent="1" vertex="1">
          <mxGeometry x="170" y="384" width="17.5" height="17.5" as="geometry" />
        </mxCell>
        <mxCell id="9ZFUQ1CrxA7jaHmztUz1-20" value="" style="ellipse;whiteSpace=wrap;html=1;aspect=fixed;gradientColor=#003366;" parent="1" vertex="1">
          <mxGeometry x="229" y="420" width="17.5" height="17.5" as="geometry" />
        </mxCell>
        <mxCell id="9ZFUQ1CrxA7jaHmztUz1-22" value="" style="ellipse;whiteSpace=wrap;html=1;aspect=fixed;gradientColor=#007FFF;" parent="1" vertex="1">
          <mxGeometry x="200.5" y="344.5" width="17.5" height="17.5" as="geometry" />
        </mxCell>
        <mxCell id="9ZFUQ1CrxA7jaHmztUz1-23" value="" style="endArrow=none;html=1;strokeColor=#007FFF;" parent="1" source="9ZFUQ1CrxA7jaHmztUz1-16" target="9ZFUQ1CrxA7jaHmztUz1-22" edge="1">
          <mxGeometry width="50" height="50" relative="1" as="geometry">
            <mxPoint x="197.499985589669" y="323.23411980836715" as="sourcePoint" />
            <mxPoint x="740" y="322" as="targetPoint" />
          </mxGeometry>
        </mxCell>
        <mxCell id="9ZFUQ1CrxA7jaHmztUz1-28" value="" style="edgeStyle=elbowEdgeStyle;elbow=horizontal;endArrow=classic;html=1;strokeColor=#000066;exitX=0.5;exitY=1;exitDx=0;exitDy=0;" parent="1" source="9ZFUQ1CrxA7jaHmztUz1-16" edge="1">
          <mxGeometry width="50" height="50" relative="1" as="geometry">
            <mxPoint x="187.5" y="322" as="sourcePoint" />
            <mxPoint x="170" y="390" as="targetPoint" />
            <Array as="points">
              <mxPoint x="159" y="400" />
              <mxPoint x="159" y="390" />
            </Array>
          </mxGeometry>
        </mxCell>
        <mxCell id="9ZFUQ1CrxA7jaHmztUz1-32" value="" style="edgeStyle=elbowEdgeStyle;elbow=horizontal;endArrow=classic;html=1;strokeColor=#000066;exitX=0.5;exitY=1;exitDx=0;exitDy=0;" parent="1" source="9ZFUQ1CrxA7jaHmztUz1-22" edge="1">
          <mxGeometry width="50" height="50" relative="1" as="geometry">
            <mxPoint x="251.25" y="339" as="sourcePoint" />
            <mxPoint x="230" y="430" as="targetPoint" />
            <Array as="points">
              <mxPoint x="209" y="430" />
            </Array>
          </mxGeometry>
        </mxCell>
        <mxCell id="9ZFUQ1CrxA7jaHmztUz1-33" value="" style="ellipse;whiteSpace=wrap;html=1;aspect=fixed;gradientColor=#003366;" parent="1" vertex="1">
          <mxGeometry x="284" y="420" width="17.5" height="17.5" as="geometry" />
        </mxCell>
        <mxCell id="9ZFUQ1CrxA7jaHmztUz1-34" value="" style="ellipse;whiteSpace=wrap;html=1;aspect=fixed;gradientColor=#3399FF;" parent="1" vertex="1">
          <mxGeometry x="277" y="344.5" width="17.5" height="17.5" as="geometry" />
        </mxCell>
        <mxCell id="9ZFUQ1CrxA7jaHmztUz1-35" value="" style="endArrow=none;html=1;strokeColor=#007FFF;" parent="1" source="9ZFUQ1CrxA7jaHmztUz1-22" target="9ZFUQ1CrxA7jaHmztUz1-34" edge="1">
          <mxGeometry width="50" height="50" relative="1" as="geometry">
            <mxPoint x="259.9999816288248" y="323.23206970977697" as="sourcePoint" />
            <mxPoint x="740" y="322" as="targetPoint" />
          </mxGeometry>
        </mxCell>
        <mxCell id="9ZFUQ1CrxA7jaHmztUz1-37" value="" style="edgeStyle=elbowEdgeStyle;elbow=vertical;endArrow=classic;html=1;strokeColor=#000066;entryX=0.5;entryY=1;entryDx=0;entryDy=0;" parent="1" edge="1" target="9ZFUQ1CrxA7jaHmztUz1-34">
          <mxGeometry width="50" height="50" relative="1" as="geometry">
            <mxPoint x="256" y="393" as="sourcePoint" />
            <mxPoint x="306" y="360" as="targetPoint" />
            <Array as="points">
              <mxPoint x="306" y="393" />
            </Array>
          </mxGeometry>
        </mxCell>
        <mxCell id="9ZFUQ1CrxA7jaHmztUz1-38" value="" style="ellipse;whiteSpace=wrap;html=1;aspect=fixed;gradientColor=#3399FF;" parent="1" vertex="1">
          <mxGeometry x="321" y="346" width="17.5" height="17.5" as="geometry" />
        </mxCell>
        <mxCell id="9ZFUQ1CrxA7jaHmztUz1-42" value="" style="edgeStyle=elbowEdgeStyle;elbow=vertical;endArrow=classic;html=1;strokeColor=#000066;entryX=0.5;entryY=1;entryDx=0;entryDy=0;" parent="1" edge="1" target="9ZFUQ1CrxA7jaHmztUz1-41">
          <mxGeometry width="50" height="50" relative="1" as="geometry">
            <mxPoint x="339.5" y="354" as="sourcePoint" />
            <mxPoint x="389.5" y="321" as="targetPoint" />
            <Array as="points">
              <mxPoint x="389.5" y="354" />
            </Array>
          </mxGeometry>
        </mxCell>
        <mxCell id="9ZFUQ1CrxA7jaHmztUz1-41" value="" style="ellipse;whiteSpace=wrap;html=1;aspect=fixed;gradientColor=#00CC00;" parent="1" vertex="1">
          <mxGeometry x="346" y="304.5" width="17.5" height="17.5" as="geometry" />
        </mxCell>
        <mxCell id="9ZFUQ1CrxA7jaHmztUz1-43" value="" style="endArrow=none;html=1;fillColor=#d5e8d4;strokeColor=#82b366;" parent="1" target="9ZFUQ1CrxA7jaHmztUz1-41" edge="1">
          <mxGeometry width="50" height="50" relative="1" as="geometry">
            <mxPoint x="130" y="312" as="sourcePoint" />
            <mxPoint x="740" y="312" as="targetPoint" />
          </mxGeometry>
        </mxCell>
        <mxCell id="M0Mpdi-mKDBLYwmACuWR-1" value="" style="rounded=0;whiteSpace=wrap;html=1;fillColor=#f5f5f5;strokeColor=#666666;fontColor=#333333;gradientColor=#A8A8A8;" parent="1" vertex="1">
          <mxGeometry x="21" y="99" width="100" height="30" as="geometry" />
        </mxCell>
        <mxCell id="M0Mpdi-mKDBLYwmACuWR-2" value="" style="endArrow=none;html=1;fillColor=#f5f5f5;strokeColor=#666666;" parent="1" edge="1">
          <mxGeometry width="50" height="50" relative="1" as="geometry">
            <mxPoint x="131" y="118" as="sourcePoint" />
            <mxPoint x="740" y="119" as="targetPoint" />
          </mxGeometry>
        </mxCell>
        <mxCell id="M0Mpdi-mKDBLYwmACuWR-3" value="" style="ellipse;whiteSpace=wrap;html=1;aspect=fixed;gradientColor=#C7C7C7;" parent="1" vertex="1">
          <mxGeometry x="376" y="108.5" width="17.5" height="17.5" as="geometry" />
        </mxCell>
        <mxCell id="M0Mpdi-mKDBLYwmACuWR-4" value="" style="edgeStyle=elbowEdgeStyle;elbow=vertical;endArrow=classic;html=1;strokeColor=#000066;entryX=0.5;entryY=1;entryDx=0;entryDy=0;exitX=1;exitY=0.5;exitDx=0;exitDy=0;" parent="1" edge="1" source="9ZFUQ1CrxA7jaHmztUz1-41">
          <mxGeometry width="50" height="50" relative="1" as="geometry">
            <mxPoint x="380" y="310" as="sourcePoint" />
            <mxPoint x="384.75" y="126" as="targetPoint" />
            <Array as="points">
              <mxPoint x="385" y="313" />
            </Array>
          </mxGeometry>
        </mxCell>
        <mxCell id="M0Mpdi-mKDBLYwmACuWR-6" value="master" style="text;html=1;strokeColor=none;fillColor=none;align=center;verticalAlign=middle;whiteSpace=wrap;rounded=0;" parent="1" vertex="1">
          <mxGeometry x="50" y="104" width="40" height="20" as="geometry" />
        </mxCell>
        <mxCell id="FS6TIJtpVs7ixiQyFC9U-1" value="1.0.0" style="text;html=1;strokeColor=none;fillColor=none;align=center;verticalAlign=middle;whiteSpace=wrap;rounded=0;" parent="1" vertex="1">
          <mxGeometry x="332.75" y="283" width="40" height="20" as="geometry" />
        </mxCell>
        <mxCell id="FS6TIJtpVs7ixiQyFC9U-2" value="" style="rounded=0;whiteSpace=wrap;html=1;fillColor=#fff2cc;strokeColor=#d6b656;" parent="1" vertex="1">
          <mxGeometry x="22" y="140" width="100" height="30" as="geometry" />
        </mxCell>
        <mxCell id="FS6TIJtpVs7ixiQyFC9U-3" value="" style="endArrow=none;html=1;fillColor=#fff2cc;strokeColor=#d6b656;" parent="1" source="FS6TIJtpVs7ixiQyFC9U-21" edge="1">
          <mxGeometry width="50" height="50" relative="1" as="geometry">
            <mxPoint x="132" y="159" as="sourcePoint" />
            <mxPoint x="741" y="160" as="targetPoint" />
          </mxGeometry>
        </mxCell>
        <mxCell id="FS6TIJtpVs7ixiQyFC9U-4" value="" style="ellipse;whiteSpace=wrap;html=1;aspect=fixed;gradientColor=#C7C7C7;" parent="1" vertex="1">
          <mxGeometry x="487" y="149.5" width="17.5" height="17.5" as="geometry" />
        </mxCell>
        <mxCell id="FS6TIJtpVs7ixiQyFC9U-5" value="1.1.0" style="text;html=1;strokeColor=none;fillColor=none;align=center;verticalAlign=middle;whiteSpace=wrap;rounded=0;" parent="1" vertex="1">
          <mxGeometry x="476" y="130" width="40" height="20" as="geometry" />
        </mxCell>
        <mxCell id="FS6TIJtpVs7ixiQyFC9U-6" value="support/V1" style="text;html=1;strokeColor=none;fillColor=none;align=center;verticalAlign=middle;whiteSpace=wrap;rounded=0;" parent="1" vertex="1">
          <mxGeometry x="51" y="145" width="40" height="20" as="geometry" />
        </mxCell>
        <mxCell id="FS6TIJtpVs7ixiQyFC9U-8" value="" style="ellipse;whiteSpace=wrap;html=1;aspect=fixed;gradientColor=#00CC00;" parent="1" vertex="1">
          <mxGeometry x="488" y="305.5" width="17.5" height="17.5" as="geometry" />
        </mxCell>
        <mxCell id="FS6TIJtpVs7ixiQyFC9U-9" value="2.0.0" style="text;html=1;strokeColor=none;fillColor=none;align=center;verticalAlign=middle;whiteSpace=wrap;rounded=0;" parent="1" vertex="1">
          <mxGeometry x="477.75" y="283" width="40" height="20" as="geometry" />
        </mxCell>
        <mxCell id="FS6TIJtpVs7ixiQyFC9U-10" value="" style="ellipse;whiteSpace=wrap;html=1;aspect=fixed;gradientColor=#C7C7C7;" parent="1" vertex="1">
          <mxGeometry x="466" y="109.5" width="17.5" height="17.5" as="geometry" />
        </mxCell>
        <mxCell id="FS6TIJtpVs7ixiQyFC9U-11" value="" style="edgeStyle=elbowEdgeStyle;elbow=horizontal;endArrow=classic;html=1;strokeColor=#000066;" parent="1" edge="1">
          <mxGeometry width="50" height="50" relative="1" as="geometry">
            <mxPoint x="475" y="130" as="sourcePoint" />
            <mxPoint x="487" y="159" as="targetPoint" />
            <Array as="points">
              <mxPoint x="475" y="159" />
            </Array>
          </mxGeometry>
        </mxCell>
        <mxCell id="FS6TIJtpVs7ixiQyFC9U-12" value="" style="edgeStyle=elbowEdgeStyle;elbow=vertical;endArrow=classic;html=1;strokeColor=#000066;entryX=0.5;entryY=1;entryDx=0;entryDy=0;" parent="1" edge="1" target="FS6TIJtpVs7ixiQyFC9U-13">
          <mxGeometry width="50" height="50" relative="1" as="geometry">
            <mxPoint x="507" y="313" as="sourcePoint" />
            <mxPoint x="537.25" y="159" as="targetPoint" />
            <Array as="points">
              <mxPoint x="537" y="313" />
            </Array>
          </mxGeometry>
        </mxCell>
        <mxCell id="FS6TIJtpVs7ixiQyFC9U-13" value="" style="ellipse;whiteSpace=wrap;html=1;aspect=fixed;gradientColor=#C7C7C7;" parent="1" vertex="1">
          <mxGeometry x="522" y="109.5" width="17.5" height="17.5" as="geometry" />
        </mxCell>
        <mxCell id="FS6TIJtpVs7ixiQyFC9U-14" value="2.0.0" style="text;html=1;strokeColor=none;fillColor=none;align=center;verticalAlign=middle;whiteSpace=wrap;rounded=0;" parent="1" vertex="1">
          <mxGeometry x="513" y="88" width="40" height="20" as="geometry" />
        </mxCell>
        <mxCell id="FS6TIJtpVs7ixiQyFC9U-15" value="" style="endArrow=none;html=1;strokeColor=#82b366;fillColor=#d5e8d4;" parent="1" edge="1">
          <mxGeometry width="50" height="50" relative="1" as="geometry">
            <mxPoint x="140" y="201" as="sourcePoint" />
            <mxPoint x="742" y="201" as="targetPoint" />
          </mxGeometry>
        </mxCell>
        <mxCell id="FS6TIJtpVs7ixiQyFC9U-16" value="" style="endArrow=none;html=1;strokeColor=#b85450;fillColor=#f8cecc;" parent="1" source="FS6TIJtpVs7ixiQyFC9U-23" edge="1">
          <mxGeometry width="50" height="50" relative="1" as="geometry">
            <mxPoint x="132" y="241" as="sourcePoint" />
            <mxPoint x="742" y="241" as="targetPoint" />
          </mxGeometry>
        </mxCell>
        <mxCell id="FS6TIJtpVs7ixiQyFC9U-17" value="" style="rounded=0;whiteSpace=wrap;html=1;fillColor=#d5e8d4;strokeColor=#82b366;" parent="1" vertex="1">
          <mxGeometry x="22" y="181" width="100" height="30" as="geometry" />
        </mxCell>
        <mxCell id="FS6TIJtpVs7ixiQyFC9U-18" value="" style="rounded=0;whiteSpace=wrap;html=1;fillColor=#f8cecc;strokeColor=#b85450;" parent="1" vertex="1">
          <mxGeometry x="22" y="221" width="100" height="30" as="geometry" />
        </mxCell>
        <mxCell id="FS6TIJtpVs7ixiQyFC9U-19" value="release/v1" style="text;html=1;strokeColor=none;fillColor=none;align=center;verticalAlign=middle;whiteSpace=wrap;rounded=0;" parent="1" vertex="1">
          <mxGeometry x="52" y="186" width="40" height="20" as="geometry" />
        </mxCell>
        <mxCell id="FS6TIJtpVs7ixiQyFC9U-20" value="bugfix/b" style="text;html=1;strokeColor=none;fillColor=none;align=center;verticalAlign=middle;whiteSpace=wrap;rounded=0;" parent="1" vertex="1">
          <mxGeometry x="51" y="226" width="40" height="20" as="geometry" />
        </mxCell>
        <mxCell id="FS6TIJtpVs7ixiQyFC9U-23" value="" style="ellipse;whiteSpace=wrap;html=1;aspect=fixed;fillColor=#f8cecc;strokeColor=#b85450;" parent="1" vertex="1">
          <mxGeometry x="582" y="233" width="17.5" height="17.5" as="geometry" />
        </mxCell>
        <mxCell id="FS6TIJtpVs7ixiQyFC9U-24" value="" style="endArrow=none;html=1;strokeColor=#b85450;fillColor=#f8cecc;" parent="1" target="FS6TIJtpVs7ixiQyFC9U-23" edge="1">
          <mxGeometry width="50" height="50" relative="1" as="geometry">
            <mxPoint x="132" y="241" as="sourcePoint" />
            <mxPoint x="742" y="241" as="targetPoint" />
          </mxGeometry>
        </mxCell>
        <mxCell id="FS6TIJtpVs7ixiQyFC9U-27" value="" style="edgeStyle=elbowEdgeStyle;elbow=horizontal;endArrow=classic;html=1;strokeColor=#000066;exitX=0.5;exitY=1;exitDx=0;exitDy=0;entryX=0;entryY=0.5;entryDx=0;entryDy=0;" parent="1" source="FS6TIJtpVs7ixiQyFC9U-21" edge="1" target="FS6TIJtpVs7ixiQyFC9U-23">
          <mxGeometry width="50" height="50" relative="1" as="geometry">
            <mxPoint x="650.5" y="201" as="sourcePoint" />
            <mxPoint x="671" y="241" as="targetPoint" />
            <Array as="points">
              <mxPoint x="566" y="220" />
            </Array>
          </mxGeometry>
        </mxCell>
        <mxCell id="FS6TIJtpVs7ixiQyFC9U-31" value="" style="edgeStyle=elbowEdgeStyle;elbow=vertical;endArrow=classic;html=1;strokeColor=#000066;entryX=0.5;entryY=1;entryDx=0;entryDy=0;" parent="1" edge="1" target="FS6TIJtpVs7ixiQyFC9U-37">
          <mxGeometry width="50" height="50" relative="1" as="geometry">
            <mxPoint x="604" y="243" as="sourcePoint" />
            <mxPoint x="619" y="200" as="targetPoint" />
            <Array as="points">
              <mxPoint x="647.5" y="243" />
            </Array>
          </mxGeometry>
        </mxCell>
        <mxCell id="FS6TIJtpVs7ixiQyFC9U-21" value="" style="ellipse;whiteSpace=wrap;html=1;aspect=fixed;fillColor=#fff2cc;strokeColor=#d6b656;" parent="1" vertex="1">
          <mxGeometry x="557" y="152.5" width="17.5" height="17.5" as="geometry" />
        </mxCell>
        <mxCell id="FS6TIJtpVs7ixiQyFC9U-36" value="" style="endArrow=none;html=1;fillColor=#fff2cc;strokeColor=#d6b656;" parent="1" target="FS6TIJtpVs7ixiQyFC9U-21" edge="1">
          <mxGeometry width="50" height="50" relative="1" as="geometry">
            <mxPoint x="132" y="159" as="sourcePoint" />
            <mxPoint x="741" y="160" as="targetPoint" />
          </mxGeometry>
        </mxCell>
        <mxCell id="FS6TIJtpVs7ixiQyFC9U-37" value="" style="ellipse;whiteSpace=wrap;html=1;aspect=fixed;fillColor=#d5e8d4;strokeColor=#82b366;" parent="1" vertex="1">
          <mxGeometry x="603" y="191.5" width="17.5" height="17.5" as="geometry" />
        </mxCell>
        <mxCell id="FS6TIJtpVs7ixiQyFC9U-38" value="" style="edgeStyle=elbowEdgeStyle;elbow=vertical;endArrow=classic;html=1;strokeColor=#000066;" parent="1" edge="1">
          <mxGeometry width="50" height="50" relative="1" as="geometry">
            <mxPoint x="620" y="202" as="sourcePoint" />
            <mxPoint x="630" y="169" as="targetPoint" />
            <Array as="points">
              <mxPoint x="663.5" y="202" />
            </Array>
          </mxGeometry>
        </mxCell>
        <mxCell id="FS6TIJtpVs7ixiQyFC9U-39" value="" style="ellipse;whiteSpace=wrap;html=1;aspect=fixed;fillColor=#fff2cc;strokeColor=#d6b656;" parent="1" vertex="1">
          <mxGeometry x="620" y="150.5" width="17.5" height="17.5" as="geometry" />
        </mxCell>
        <mxCell id="FS6TIJtpVs7ixiQyFC9U-40" value="1.1.1" style="text;html=1;strokeColor=none;fillColor=none;align=center;verticalAlign=middle;whiteSpace=wrap;rounded=0;" parent="1" vertex="1">
          <mxGeometry x="604" y="130" width="40" height="20" as="geometry" />
        </mxCell>
        <mxCell id="vg6nrwap1aa7qGH-DQrM-5" value="" style="endArrow=none;html=1;entryX=0.96;entryY=0.571;entryDx=0;entryDy=0;entryPerimeter=0;exitX=1;exitY=0.5;exitDx=0;exitDy=0;" edge="1" parent="1" source="9ZFUQ1CrxA7jaHmztUz1-18" target="vg6nrwap1aa7qGH-DQrM-1">
          <mxGeometry width="50" height="50" relative="1" as="geometry">
            <mxPoint x="390" y="310" as="sourcePoint" />
            <mxPoint x="440" y="260" as="targetPoint" />
          </mxGeometry>
        </mxCell>
        <mxCell id="9ZFUQ1CrxA7jaHmztUz1-29" value="" style="ellipse;whiteSpace=wrap;html=1;aspect=fixed;gradientColor=#0000CC;" parent="1" vertex="1">
          <mxGeometry x="236" y="383" width="17.5" height="17.5" as="geometry" />
        </mxCell>
        <mxCell id="vg6nrwap1aa7qGH-DQrM-7" value="" style="edgeStyle=elbowEdgeStyle;elbow=vertical;endArrow=classic;html=1;strokeColor=#000066;entryX=0.5;entryY=1;entryDx=0;entryDy=0;exitX=1;exitY=0.5;exitDx=0;exitDy=0;" edge="1" parent="1" source="9ZFUQ1CrxA7jaHmztUz1-33" target="9ZFUQ1CrxA7jaHmztUz1-38">
          <mxGeometry width="50" height="50" relative="1" as="geometry">
            <mxPoint x="310" y="430" as="sourcePoint" />
            <mxPoint x="336.9371843353822" y="361.9371843353822" as="targetPoint" />
            <Array as="points">
              <mxPoint x="330" y="429" />
            </Array>
          </mxGeometry>
        </mxCell>
        <mxCell id="vg6nrwap1aa7qGH-DQrM-8" value="1.0.0" style="text;html=1;strokeColor=none;fillColor=none;align=center;verticalAlign=middle;whiteSpace=wrap;rounded=0;" vertex="1" parent="1">
          <mxGeometry x="360.75" y="86" width="40" height="20" as="geometry" />
        </mxCell>
        <mxCell id="vg6nrwap1aa7qGH-DQrM-9" value="" style="ellipse;whiteSpace=wrap;html=1;aspect=fixed;gradientColor=#00CC00;" vertex="1" parent="1">
          <mxGeometry x="392" y="304.5" width="17.5" height="17.5" as="geometry" />
        </mxCell>
        <mxCell id="vg6nrwap1aa7qGH-DQrM-10" value="" style="ellipse;whiteSpace=wrap;html=1;aspect=fixed;gradientColor=#C7C7C7;" vertex="1" parent="1">
          <mxGeometry x="422" y="108.5" width="17.5" height="17.5" as="geometry" />
        </mxCell>
        <mxCell id="vg6nrwap1aa7qGH-DQrM-11" value="" style="edgeStyle=elbowEdgeStyle;elbow=vertical;endArrow=classic;html=1;strokeColor=#000066;entryX=0.5;entryY=1;entryDx=0;entryDy=0;exitX=1;exitY=0.5;exitDx=0;exitDy=0;" edge="1" parent="1" source="vg6nrwap1aa7qGH-DQrM-9">
          <mxGeometry width="50" height="50" relative="1" as="geometry">
            <mxPoint x="426" y="310" as="sourcePoint" />
            <mxPoint x="430.75" y="126" as="targetPoint" />
            <Array as="points">
              <mxPoint x="431" y="313" />
            </Array>
          </mxGeometry>
        </mxCell>
        <mxCell id="vg6nrwap1aa7qGH-DQrM-12" value="1.1.0" style="text;html=1;strokeColor=none;fillColor=none;align=center;verticalAlign=middle;whiteSpace=wrap;rounded=0;" vertex="1" parent="1">
          <mxGeometry x="385.75" y="284" width="40" height="20" as="geometry" />
        </mxCell>
        <mxCell id="vg6nrwap1aa7qGH-DQrM-13" value="1.1.0" style="text;html=1;strokeColor=none;fillColor=none;align=center;verticalAlign=middle;whiteSpace=wrap;rounded=0;" vertex="1" parent="1">
          <mxGeometry x="406.75" y="87" width="40" height="20" as="geometry" />
        </mxCell>
        <mxCell id="vg6nrwap1aa7qGH-DQrM-15" value="" style="ellipse;whiteSpace=wrap;html=1;aspect=fixed;gradientColor=#00CC00;" vertex="1" parent="1">
          <mxGeometry x="604" y="302.5" width="17.5" height="17.5" as="geometry" />
        </mxCell>
        <mxCell id="vg6nrwap1aa7qGH-DQrM-16" value="" style="edgeStyle=elbowEdgeStyle;elbow=vertical;endArrow=classic;html=1;strokeColor=#000066;entryX=0.5;entryY=1;entryDx=0;entryDy=0;" edge="1" parent="1" target="vg6nrwap1aa7qGH-DQrM-17">
          <mxGeometry width="50" height="50" relative="1" as="geometry">
            <mxPoint x="622" y="313" as="sourcePoint" />
            <mxPoint x="652.25" y="159" as="targetPoint" />
            <Array as="points">
              <mxPoint x="652" y="313" />
            </Array>
          </mxGeometry>
        </mxCell>
        <mxCell id="vg6nrwap1aa7qGH-DQrM-17" value="" style="ellipse;whiteSpace=wrap;html=1;aspect=fixed;gradientColor=#C7C7C7;" vertex="1" parent="1">
          <mxGeometry x="637" y="109.5" width="17.5" height="17.5" as="geometry" />
        </mxCell>
        <mxCell id="vg6nrwap1aa7qGH-DQrM-18" value="2.1.0" style="text;html=1;strokeColor=none;fillColor=none;align=center;verticalAlign=middle;whiteSpace=wrap;rounded=0;" vertex="1" parent="1">
          <mxGeometry x="591.75" y="284" width="40" height="20" as="geometry" />
        </mxCell>
        <mxCell id="vg6nrwap1aa7qGH-DQrM-19" value="2.1.0" style="text;html=1;strokeColor=none;fillColor=none;align=center;verticalAlign=middle;whiteSpace=wrap;rounded=0;" vertex="1" parent="1">
          <mxGeometry x="624" y="90" width="40" height="20" as="geometry" />
        </mxCell>
        <mxCell id="vg6nrwap1aa7qGH-DQrM-20" value="1.1.1" style="text;html=1;strokeColor=none;fillColor=none;align=center;verticalAlign=middle;whiteSpace=wrap;rounded=0;" vertex="1" parent="1">
          <mxGeometry x="591" y="174" width="40" height="20" as="geometry" />
        </mxCell>
        <mxCell id="vg6nrwap1aa7qGH-DQrM-23" value="" style="ellipse;whiteSpace=wrap;html=1;aspect=fixed;fillColor=#d5e8d4;strokeColor=#82b366;" vertex="1" parent="1">
          <mxGeometry x="665" y="191.5" width="17.5" height="17.5" as="geometry" />
        </mxCell>
        <mxCell id="vg6nrwap1aa7qGH-DQrM-24" value="" style="ellipse;whiteSpace=wrap;html=1;aspect=fixed;fillColor=#fff2cc;strokeColor=#d6b656;" vertex="1" parent="1">
          <mxGeometry x="680" y="151.5" width="17.5" height="17.5" as="geometry" />
        </mxCell>
        <mxCell id="vg6nrwap1aa7qGH-DQrM-25" value="" style="edgeStyle=elbowEdgeStyle;elbow=vertical;endArrow=classic;html=1;strokeColor=#000066;entryX=0.5;entryY=1;entryDx=0;entryDy=0;" edge="1" parent="1">
          <mxGeometry width="50" height="50" relative="1" as="geometry">
            <mxPoint x="683" y="202" as="sourcePoint" />
            <mxPoint x="690.75" y="168" as="targetPoint" />
            <Array as="points">
              <mxPoint x="726.5" y="202" />
            </Array>
          </mxGeometry>
        </mxCell>
        <mxCell id="vg6nrwap1aa7qGH-DQrM-26" value="1.1.2" style="text;html=1;strokeColor=none;fillColor=none;align=center;verticalAlign=middle;whiteSpace=wrap;rounded=0;" vertex="1" parent="1">
          <mxGeometry x="666" y="129" width="40" height="20" as="geometry" />
        </mxCell>
      </root>
    </mxGraphModel>
  </diagram>
</mxfile>
